<svg width="134" height="59" viewBox="0 0 134 59" fill="none" xmlns="http://www.w3.org/2000/svg">
<path d="M68.3686 20.056C69.154 20.056 69.9695 20.222 70.8152 20.554C71.661 20.886 72.4765 21.3237 73.2618 21.8669H73.2165C74.0018 22.4102 74.6059 23.1497 75.0288 24.0853C75.4517 25.021 75.6631 26.0924 75.6631 27.2997V33.5022C75.6631 35.9469 74.8476 37.7729 73.2165 38.9802C72.4312 39.5537 71.6157 40.0064 70.7699 40.3384C69.9544 40.6402 69.154 40.7911 68.3686 40.7911H58.4917C57.7063 40.7911 56.8908 40.6402 56.0451 40.3384C55.2295 40.0064 54.4291 39.5537 53.6438 38.9802C52.0127 37.7729 51.1972 35.9469 51.1972 33.5022V30.5141C51.1972 29.0956 52.0882 28.3863 53.8703 28.3863C55.6826 28.3863 56.5887 29.0956 56.5887 30.5141V33.14C56.5887 33.9247 56.8153 34.634 57.2684 35.2678C57.7214 35.9016 58.5068 36.2185 59.6243 36.2185H67.236C68.3535 36.2185 69.1389 35.9016 69.5919 35.2678C70.045 34.634 70.2715 33.9247 70.2715 33.14V27.6619C70.2715 26.9074 70.045 26.2132 69.5919 25.5793C69.1389 24.9153 68.3535 24.5833 67.236 24.5833H58.4917C56.921 24.5833 55.305 24.0099 53.6438 22.863C52.0127 21.5953 51.1972 19.7693 51.1972 17.3849V11.9974C51.1972 10.7901 51.4086 9.73373 51.8315 8.82827C52.2544 7.89262 52.8585 7.13807 53.6438 6.56461H53.5985C54.3838 6.05151 55.1993 5.62896 56.0451 5.29696C56.8908 4.96496 57.7063 4.79896 58.4917 4.79896H68.3686C69.154 4.79896 69.9695 4.96496 70.8152 5.29696C71.661 5.62896 72.4765 6.05151 73.2618 6.56461H73.2165C74.0018 7.13807 74.6059 7.89262 75.0288 8.82827C75.4517 9.73373 75.6631 10.7901 75.6631 11.9974V14.6685C75.6631 16.0871 74.757 16.7963 72.9447 16.7963C71.1626 16.7963 70.2715 16.0871 70.2715 14.6685V12.4048C70.2715 11.6503 70.045 10.9561 69.5919 10.3223C69.1389 9.68846 68.3535 9.37155 67.236 9.37155H59.6243C58.5068 9.37155 57.7214 9.68846 57.2684 10.3223C56.8153 10.9561 56.5887 11.6503 56.5887 12.4048V17.0227C56.5887 17.8074 56.8153 18.5167 57.2684 19.1506C57.7214 19.7542 58.5068 20.056 59.6243 20.056H68.3686Z" fill="black"/>
<path d="M96.0181 38.9349C96.0181 40.3837 95.1271 41.108 93.345 41.108C91.5629 41.108 90.6718 40.3837 90.6718 38.9349V26.8923L80.523 7.60589C80.3418 7.21352 80.2512 6.80606 80.2512 6.38351C80.2512 5.50823 80.7646 4.85932 81.7916 4.43677H81.7463C82.4108 4.19531 82.9394 4.07458 83.3321 4.07458C84.1174 4.07458 84.7215 4.46695 85.1443 5.25169L93.3903 20.7351C93.9944 19.5882 94.6438 18.3658 95.3385 17.068C96.0332 15.74 96.7279 14.3969 97.4226 13.0387C98.1475 11.6805 98.8573 10.3374 99.5521 9.00936C100.247 7.68135 100.911 6.42879 101.546 5.25169C101.787 4.8895 102.044 4.60277 102.316 4.3915C102.618 4.18022 102.98 4.07458 103.403 4.07458C103.826 4.07458 104.324 4.19531 104.898 4.43677H104.853C105.91 4.8895 106.439 5.55351 106.439 6.42879C106.439 6.60988 106.424 6.80607 106.393 7.01734C106.363 7.19843 106.288 7.39462 106.167 7.60589C105.895 8.14917 105.548 8.81318 105.125 9.59791C104.732 10.3826 104.158 11.4843 103.403 12.9029C102.678 14.2912 101.727 16.1173 100.549 18.3809C99.3708 20.6144 97.8606 23.4968 96.0181 27.0281V38.9349Z" fill="black"/>
<path d="M113.872 40.7911C112.755 40.7911 112 40.5044 111.607 39.9309C111.214 39.3575 111.018 38.7237 111.018 38.0295V7.51535C111.018 6.82116 111.214 6.20242 111.607 5.65915C112 5.08569 112.755 4.79896 113.872 4.79896H129.639C130.757 4.79896 131.346 5.55351 131.406 7.06261C131.467 8.6019 130.878 9.37155 129.639 9.37155H116.364V36.2185H130.455C131.572 36.2185 132.146 36.958 132.176 38.4369C132.237 40.0064 131.663 40.7911 130.455 40.7911H113.872ZM127.963 22.048C127.963 23.1044 127.585 23.9948 126.83 24.7192C126.105 25.4435 125.214 25.8057 124.157 25.8057C123.13 25.8057 122.254 25.4435 121.529 24.7192C120.804 23.9948 120.442 23.1044 120.442 22.048C120.442 20.9917 120.804 20.1013 121.529 19.3769C122.254 18.6525 123.13 18.2904 124.157 18.2904C125.214 18.2904 126.105 18.6525 126.83 19.3769C127.585 20.1013 127.963 20.9917 127.963 22.048Z" fill="black"/>
<path d="M10.2938 59C9.10978 59 8.14926 58.8431 7.41227 58.5292C6.67527 58.2032 6.1195 57.7565 5.74496 57.1891C5.3825 56.6217 5.17107 55.9818 5.11066 55.2695H6.52424C6.56049 55.849 6.7538 56.3198 7.10418 56.682C7.45455 57.0321 7.91367 57.2917 8.48152 57.4607C9.06145 57.6297 9.69575 57.7142 10.3844 57.7142C11.3993 57.7142 12.2028 57.5392 12.7948 57.1891C13.3868 56.8269 13.6828 56.2957 13.6828 55.5955C13.6828 55.1729 13.5318 54.8349 13.2297 54.5813C12.9397 54.3157 12.5471 54.0984 12.0517 53.9294C11.5684 53.7604 11.0368 53.6095 10.4569 53.4767C9.87698 53.3318 9.29101 53.1809 8.69899 53.0239C8.11906 52.867 7.58141 52.6678 7.08605 52.4263C6.60278 52.1849 6.21011 51.877 5.90806 51.5028C5.6181 51.1164 5.47311 50.6275 5.47311 50.0359C5.47311 49.058 5.84766 48.2612 6.59674 47.6455C7.3579 47.0298 8.48756 46.7219 9.98572 46.7219C11.0489 46.7219 11.9249 46.8849 12.6135 47.2109C13.3022 47.5248 13.8157 47.9413 14.154 48.4604C14.5044 48.9795 14.6977 49.5409 14.7339 50.1446H13.3385C13.266 49.5409 12.9639 49.0339 12.4323 48.6234C11.9007 48.2008 11.0852 47.9896 9.98572 47.9896C9.30913 47.9896 8.7594 48.056 8.33653 48.1888C7.91367 48.3216 7.58745 48.4966 7.3579 48.7139C7.14042 48.9192 6.9894 49.1365 6.90482 49.3659C6.83233 49.5953 6.79609 49.8126 6.79609 50.0178C6.79609 50.4162 6.94107 50.7422 7.23104 50.9957C7.53308 51.2372 7.92575 51.4424 8.40903 51.6114C8.90438 51.7684 9.44807 51.9132 10.0401 52.046C10.6321 52.1788 11.2181 52.3298 11.798 52.4988C12.39 52.6557 12.9277 52.861 13.4109 53.1145C13.9063 53.3559 14.299 53.6698 14.5889 54.0562C14.891 54.4425 15.042 54.9375 15.042 55.5411C15.042 56.6518 14.6191 57.509 13.7734 58.1126C12.9277 58.7042 11.7678 59 10.2938 59Z" fill="black"/>
<path d="M17.8372 58.8551V50.9957H15.9886V49.8005H17.8372V46.5589H19.1964V49.8005H21.2805V50.9957H19.1964V58.8551H17.8372Z" fill="black"/>
<path d="M26.4167 59C25.5347 59 24.7614 58.7948 24.0969 58.3843C23.4445 57.9617 22.9371 57.3943 22.5746 56.682C22.2122 55.9697 22.0309 55.185 22.0309 54.3278C22.0309 53.4586 22.2122 52.6738 22.5746 51.9736C22.9371 51.2613 23.4445 50.6999 24.0969 50.2894C24.7614 49.8669 25.5347 49.6556 26.4167 49.6556C27.1658 49.6556 27.8061 49.8005 28.3377 50.0902C28.8814 50.38 29.3224 50.7724 29.6607 51.2673V49.8005H31.0199V58.8551H29.6607V57.4064C29.3224 57.8893 28.8814 58.2756 28.3377 58.5654C27.8061 58.8551 27.1658 59 26.4167 59ZM26.5979 57.7686C27.2745 57.7686 27.8423 57.6116 28.3015 57.2977C28.7726 56.9838 29.1291 56.5673 29.3707 56.0482C29.6123 55.517 29.7332 54.9435 29.7332 54.3278C29.7332 53.7 29.6123 53.1266 29.3707 52.6074C29.1291 52.0883 28.7726 51.6718 28.3015 51.3579C27.8423 51.044 27.2745 50.887 26.5979 50.887C25.9334 50.887 25.3595 51.044 24.8762 51.3579C24.3929 51.6718 24.0245 52.0883 23.7707 52.6074C23.517 53.1266 23.3901 53.7 23.3901 54.3278C23.3901 54.9435 23.517 55.517 23.7707 56.0482C24.0245 56.5673 24.3929 56.9838 24.8762 57.2977C25.3595 57.6116 25.9334 57.7686 26.5979 57.7686Z" fill="black"/>
<path d="M33.3709 58.8551V49.8005H34.7301V52.0279C34.7785 51.871 34.8691 51.6657 35.002 51.4122C35.147 51.1466 35.3523 50.881 35.6181 50.6154C35.884 50.3498 36.2162 50.1265 36.6149 49.9454C37.0257 49.7522 37.509 49.6556 38.0647 49.6556H38.1554V51.0138H37.9922C37.3157 51.0138 36.7297 51.2009 36.2343 51.5752C35.7511 51.9374 35.3765 52.4143 35.1107 53.0058C34.857 53.5853 34.7301 54.2071 34.7301 54.8711V58.8551H33.3709Z" fill="black"/>
<path d="M40.597 58.8551V50.9957H38.7485V49.8005H40.597V46.5589H41.9562V49.8005H44.0403V50.9957H41.9562V58.8551H40.597Z" fill="black"/>
<path d="M53.3023 58.8551V54.1105L48.2641 46.8668H49.9133L53.9728 52.698L58.0324 46.8668H59.6815L54.6615 54.1105V58.8551H53.3023Z" fill="black"/>
<path d="M63.3552 59C62.437 59 61.6396 58.7948 60.963 58.3843C60.2864 57.9617 59.7669 57.3943 59.4044 56.682C59.042 55.9697 58.8608 55.185 58.8608 54.3278C58.8608 53.4586 59.042 52.6738 59.4044 51.9736C59.7669 51.2613 60.2864 50.6999 60.963 50.2894C61.6396 49.8669 62.437 49.6556 63.3552 49.6556C64.2856 49.6556 65.083 49.8669 65.7475 50.2894C66.4241 50.6999 66.9436 51.2613 67.306 51.9736C67.6685 52.6738 67.8497 53.4586 67.8497 54.3278C67.8497 55.185 67.6685 55.9697 67.306 56.682C66.9436 57.3943 66.4241 57.9617 65.7475 58.3843C65.083 58.7948 64.2856 59 63.3552 59ZM63.3552 57.7686C64.0318 57.7686 64.5997 57.6116 65.0588 57.2977C65.53 56.9838 65.8864 56.5673 66.128 56.0482C66.3697 55.517 66.4905 54.9435 66.4905 54.3278C66.4905 53.7 66.3697 53.1266 66.128 52.6074C65.8864 52.0883 65.53 51.6718 65.0588 51.3579C64.5997 51.044 64.0318 50.887 63.3552 50.887C62.6907 50.887 62.1229 51.044 61.6517 51.3579C61.1805 51.6718 60.8241 52.0883 60.5824 52.6074C60.3408 53.1266 60.22 53.7 60.22 54.3278C60.22 54.9435 60.3408 55.517 60.5824 56.0482C60.8241 56.5673 61.1805 56.9838 61.6517 57.2977C62.1229 57.6116 62.6907 57.7686 63.3552 57.7686Z" fill="black"/>
<path d="M73.1861 59C72.5699 59 71.9839 58.8551 71.4281 58.5654C70.8724 58.2636 70.4193 57.8229 70.0689 57.2434C69.7306 56.6518 69.5615 55.9275 69.5615 55.0703V49.8005H70.9207V55.0341C70.9207 55.855 71.1563 56.519 71.6275 57.0261C72.1108 57.5211 72.7209 57.7686 73.4579 57.7686C73.9654 57.7686 74.4245 57.6539 74.8353 57.4245C75.246 57.183 75.5723 56.8571 75.8139 56.4466C76.0676 56.0361 76.1945 55.5592 76.1945 55.016V49.8005H77.5537V58.8551H76.1945V57.4426C75.8683 57.8772 75.4696 58.2454 74.9984 58.5473C74.5272 58.8491 73.9231 59 73.1861 59Z" fill="black"/>
<path d="M79.917 58.8551V49.8005H81.2762V52.0279C81.3246 51.871 81.4152 51.6657 81.5481 51.4122C81.6931 51.1466 81.8985 50.881 82.1643 50.6154C82.4301 50.3498 82.7623 50.1265 83.161 49.9454C83.5718 49.7522 84.0551 49.6556 84.6109 49.6556H84.7015V51.0138H84.5384C83.8618 51.0138 83.2758 51.2009 82.7804 51.5752C82.2972 51.9374 81.9226 52.4143 81.6568 53.0058C81.4031 53.5853 81.2762 54.2071 81.2762 54.8711V58.8551H79.917Z" fill="black"/>
<path d="M90.3126 58.8551V46.8668H99.1385V48.1707H91.6719V52.1909H98.3411V53.5129H91.6719V57.5513H99.1385V58.8551H90.3126Z" fill="black"/>
<path d="M103.212 58.8551L99.6604 49.8005H101.146L104.01 57.4064L106.855 49.8005H108.341L104.807 58.8551H103.212Z" fill="black"/>
<path d="M113.461 59C112.543 59 111.739 58.7948 111.05 58.3843C110.362 57.9617 109.824 57.3943 109.438 56.682C109.063 55.9697 108.876 55.185 108.876 54.3278C108.876 53.4586 109.057 52.6738 109.419 51.9736C109.782 51.2613 110.301 50.6999 110.978 50.2894C111.655 49.8669 112.452 49.6556 113.37 49.6556C114.301 49.6556 115.098 49.8669 115.762 50.2894C116.439 50.6999 116.959 51.2613 117.321 51.9736C117.683 52.6738 117.865 53.4586 117.865 54.3278V54.8711H110.271C110.344 55.4023 110.513 55.8912 110.779 56.3379C111.057 56.7726 111.425 57.1227 111.884 57.3883C112.343 57.6418 112.875 57.7686 113.479 57.7686C114.119 57.7686 114.657 57.6297 115.092 57.3521C115.527 57.0623 115.865 56.6941 116.107 56.2474H117.593C117.279 57.0563 116.777 57.7203 116.089 58.2394C115.412 58.7465 114.536 59 113.461 59ZM110.289 53.6034H116.451C116.33 52.8308 116.004 52.1849 115.472 51.6657C114.941 51.1466 114.24 50.887 113.37 50.887C112.5 50.887 111.8 51.1466 111.268 51.6657C110.748 52.1849 110.422 52.8308 110.289 53.6034Z" fill="black"/>
<path d="M119.525 58.8551V49.8005H120.885V51.213C121.211 50.7784 121.61 50.4102 122.081 50.1083C122.552 49.8065 123.156 49.6556 123.893 49.6556C124.521 49.6556 125.107 49.8065 125.651 50.1083C126.207 50.3981 126.654 50.8388 126.992 51.4303C127.342 52.0098 127.518 52.7282 127.518 53.5853V58.8551H126.158V53.6215C126.158 52.8006 125.923 52.1426 125.452 51.6476C124.98 51.1406 124.37 50.887 123.621 50.887C123.114 50.887 122.655 51.0017 122.244 51.2311C121.833 51.4605 121.501 51.7865 121.247 52.209C121.006 52.6195 120.885 53.0964 120.885 53.6397V58.8551H119.525Z" fill="black"/>
<path d="M130.557 58.8551V50.9957H128.708V49.8005H130.557V46.5589H131.916V49.8005H134V50.9957H131.916V58.8551H130.557Z" fill="black"/>
<path d="M0 13.582C0 12.3318 1.01424 11.3183 2.26536 11.3183H20.3883C21.6394 11.3183 22.6536 12.3318 22.6536 13.582V23.7684C22.6536 25.0186 21.6394 26.0321 20.3883 26.0321H2.26536C1.01424 26.0321 0 25.0186 0 23.7684V13.582Z" fill="#7A63FF"/>
<path d="M7.92877 31.6912C7.92877 30.441 8.94301 29.4276 10.1941 29.4276H20.3883C21.6394 29.4276 22.6536 30.441 22.6536 31.6912V38.4822C22.6536 39.7324 21.6394 40.7459 20.3883 40.7459H10.1941C8.94301 40.7459 7.92877 39.7324 7.92877 38.4822V31.6912Z" fill="#7A63FF"/>
<path d="M11.3268 2.26366C11.3268 1.01347 12.341 0 13.5922 0H20.3883C21.6394 0 22.6536 1.01347 22.6536 2.26366V4.52732C22.6536 5.7775 21.6394 6.79098 20.3883 6.79098H13.5922C12.341 6.79098 11.3268 5.7775 11.3268 4.52732V2.26366Z" fill="#7A63FF"/>
<path d="M26.0517 21.5048C26.0517 20.2546 27.0659 19.2411 28.317 19.2411H43.0419C44.293 19.2411 45.3072 20.2546 45.3072 21.5048V35.0867C45.3072 36.3369 44.293 37.3504 43.0419 37.3504H28.317C27.0659 37.3504 26.0517 36.3369 26.0517 35.0867V21.5048Z" fill="#7A63FF"/>
<path d="M26.0517 5.65915C26.0517 4.40896 27.0659 3.39549 28.317 3.39549H39.6438C40.895 3.39549 41.9092 4.40896 41.9092 5.65915V12.4501C41.9092 13.7003 40.895 14.7138 39.6438 14.7138H28.317C27.0659 14.7138 26.0517 13.7003 26.0517 12.4501V5.65915Z" fill="#7A63FF"/>
</svg>
